<svg width="183" height="32" viewBox="0 0 183 32" fill="none" xmlns="http://www.w3.org/2000/svg">
<g clip-path="url(#clip0_74_3658)">
<path d="M29.3864 22.7101C29.2429 22.3073 29.0752 21.9176 28.9157 21.5565C28.6701 21.0011 28.4129 20.4446 28.1641 19.9067L28.1444 19.864C25.9255 15.0589 23.5439 10.1881 21.0659 5.38701L20.9607 5.18316C20.7079 4.69289 20.4466 4.18596 20.1784 3.68786C19.8604 3.0575 19.4745 2.4636 19.0276 1.91668C18.5245 1.31651 17.8956 0.833822 17.1853 0.502654C16.475 0.171486 15.7005 -9.83959e-05 14.9165 4.23316e-08C14.1325 9.84805e-05 13.3581 0.171877 12.6478 0.503224C11.9376 0.834571 11.3088 1.31742 10.8059 1.91771C10.3595 2.46476 9.97383 3.05853 9.65572 3.68858C9.38521 4.19115 9.12145 4.70278 8.8664 5.19757L8.76872 5.38696C6.29061 10.1884 3.90903 15.0592 1.69015 19.8639L1.65782 19.9338C1.41334 20.463 1.16057 21.0102 0.919073 21.5563C0.75949 21.9171 0.592009 22.3065 0.448355 22.7103C0.0369063 23.8104 -0.094204 24.9953 0.0668098 26.1585C0.237562 27.334 0.713008 28.4447 1.44606 29.3804C2.17911 30.3161 3.14434 31.0444 4.24614 31.4932C5.07835 31.8299 5.96818 32.002 6.86616 32C7.14824 31.9999 7.43008 31.9835 7.71027 31.9509C8.846 31.8062 9.94136 31.4366 10.9321 30.8639C12.2317 30.1338 13.5152 29.0638 14.9173 27.5348C16.3194 29.0638 17.6029 30.1338 18.9025 30.8639C19.8932 31.4367 20.9886 31.8062 22.1243 31.9509C22.4045 31.9835 22.6864 31.9999 22.9685 32C23.8664 32.002 24.7561 31.8299 25.5883 31.4932C26.6901 31.0444 27.6554 30.3161 28.3885 29.3804C29.1216 28.4447 29.5971 27.3341 29.7679 26.1585C29.9287 24.9952 29.7976 23.8103 29.3864 22.7101ZM14.9173 24.377C13.1816 22.1769 12.0678 20.1338 11.677 18.421C11.5169 17.7792 11.4791 17.1131 11.5656 16.4573C11.6339 15.9766 11.8105 15.5176 12.0821 15.1148C12.4163 14.6814 12.8458 14.3304 13.3374 14.0889C13.829 13.8475 14.3696 13.7219 14.9175 13.7219C15.4655 13.722 16.006 13.8476 16.4976 14.0892C16.9892 14.3307 17.4186 14.6817 17.7528 15.1151C18.0244 15.5181 18.201 15.9771 18.2693 16.4579C18.3556 17.114 18.3177 17.7803 18.1573 18.4223C17.7661 20.1349 16.6526 22.1774 14.9173 24.377ZM27.7406 25.8689C27.6212 26.6908 27.2887 27.4674 26.7762 28.1216C26.2636 28.7759 25.5887 29.2852 24.8183 29.599C24.0393 29.9111 23.1939 30.0217 22.3607 29.9205C21.4946 29.8089 20.6599 29.5239 19.9069 29.0824C18.7501 28.4325 17.5791 27.4348 16.2614 25.9712C18.3591 23.3846 19.669 21.0005 20.154 18.877C20.3723 17.984 20.4196 17.0579 20.2935 16.1475C20.1791 15.3632 19.8879 14.615 19.4419 13.9593C18.9194 13.2519 18.2378 12.6768 17.452 12.2805C16.6661 11.8842 15.798 11.6777 14.9175 11.6777C14.0371 11.6777 13.1689 11.8841 12.383 12.2803C11.5971 12.6765 10.9155 13.2515 10.393 13.9589C9.94707 14.6144 9.65591 15.3624 9.5414 16.1465C9.41524 17.0566 9.4623 17.9822 9.68011 18.8749C10.1648 20.9993 11.4748 23.384 13.5732 25.9714C12.2555 27.4348 11.0845 28.4325 9.92769 29.0825C9.17468 29.5239 8.34007 29.809 7.47395 29.9205C6.64065 30.0217 5.79525 29.9111 5.0162 29.599C4.24581 29.2852 3.57092 28.7759 3.05838 28.1217C2.54585 27.4674 2.21345 26.6908 2.09411 25.8689C1.97932 25.0334 2.07701 24.1825 2.37818 23.3946C2.49266 23.0728 2.62663 22.757 2.7926 22.3818C3.0274 21.851 3.27657 21.3115 3.51759 20.7898L3.54996 20.7197C5.75643 15.9419 8.12481 11.0982 10.5894 6.32294L10.6875 6.13283C10.9384 5.64601 11.1979 5.14267 11.4597 4.6563C11.7101 4.15501 12.0132 3.68171 12.3639 3.2444C12.6746 2.86903 13.0646 2.56681 13.5059 2.35934C13.9473 2.15186 14.4291 2.04426 14.9169 2.04422C15.4047 2.04418 15.8866 2.15171 16.3279 2.35911C16.7693 2.56651 17.1593 2.86867 17.4701 3.24399C17.821 3.68097 18.1242 4.15411 18.3744 4.65538C18.6338 5.13742 18.891 5.63623 19.1398 6.11858L19.2452 6.32315C21.7097 11.0979 24.078 15.9415 26.2847 20.7201L26.3046 20.7631C26.5498 21.2936 26.8033 21.8419 27.042 22.382C27.2082 22.7577 27.3424 23.0738 27.4566 23.3944C27.7576 24.1824 27.8553 25.0333 27.7406 25.8689Z" fill="#590BD8"/>
<path d="M43.7 16C43.7 14.6267 44.0067 13.4 44.62 12.32C45.2467 11.2267 46.0933 10.38 47.16 9.78C48.24 9.16667 49.4467 8.86 50.78 8.86C52.34 8.86 53.7067 9.26 54.88 10.06C56.0533 10.86 56.8733 11.9667 57.34 13.38H54.12C53.8 12.7133 53.3467 12.2133 52.76 11.88C52.1867 11.5467 51.52 11.38 50.76 11.38C49.9467 11.38 49.22 11.5733 48.58 11.96C47.9533 12.3333 47.46 12.8667 47.1 13.56C46.7533 14.2533 46.58 15.0667 46.58 16C46.58 16.92 46.7533 17.7333 47.1 18.44C47.46 19.1333 47.9533 19.6733 48.58 20.06C49.22 20.4333 49.9467 20.62 50.76 20.62C51.52 20.62 52.1867 20.4533 52.76 20.12C53.3467 19.7733 53.8 19.2667 54.12 18.6H57.34C56.8733 20.0267 56.0533 21.14 54.88 21.94C53.72 22.7267 52.3533 23.12 50.78 23.12C49.4467 23.12 48.24 22.82 47.16 22.22C46.0933 21.6067 45.2467 20.76 44.62 19.68C44.0067 18.6 43.7 17.3733 43.7 16ZM59.0116 17.42C59.0116 16.3 59.2316 15.3067 59.6716 14.44C60.1249 13.5733 60.7316 12.9067 61.4916 12.44C62.2649 11.9733 63.1249 11.74 64.0716 11.74C64.8982 11.74 65.6182 11.9067 66.2316 12.24C66.8582 12.5733 67.3582 12.9933 67.7316 13.5V11.92H70.5516V23H67.7316V21.38C67.3716 21.9 66.8716 22.3333 66.2316 22.68C65.6049 23.0133 64.8782 23.18 64.0516 23.18C63.1182 23.18 62.2649 22.94 61.4916 22.46C60.7316 21.98 60.1249 21.3067 59.6716 20.44C59.2316 19.56 59.0116 18.5533 59.0116 17.42ZM67.7316 17.46C67.7316 16.78 67.5982 16.2 67.3316 15.72C67.0649 15.2267 66.7049 14.8533 66.2516 14.6C65.7982 14.3333 65.3116 14.2 64.7916 14.2C64.2716 14.2 63.7916 14.3267 63.3516 14.58C62.9116 14.8333 62.5516 15.2067 62.2716 15.7C62.0049 16.18 61.8716 16.7533 61.8716 17.42C61.8716 18.0867 62.0049 18.6733 62.2716 19.18C62.5516 19.6733 62.9116 20.0533 63.3516 20.32C63.8049 20.5867 64.2849 20.72 64.7916 20.72C65.3116 20.72 65.7982 20.5933 66.2516 20.34C66.7049 20.0733 67.0649 19.7 67.3316 19.22C67.5982 18.7267 67.7316 18.14 67.7316 17.46ZM77.5263 23.18C76.6196 23.18 75.8063 23.02 75.0863 22.7C74.3663 22.3667 73.7929 21.92 73.3663 21.36C72.9529 20.8 72.7263 20.18 72.6863 19.5H75.5063C75.5596 19.9267 75.7663 20.28 76.1263 20.56C76.4996 20.84 76.9596 20.98 77.5063 20.98C78.0396 20.98 78.4529 20.8733 78.7463 20.66C79.0529 20.4467 79.2063 20.1733 79.2063 19.84C79.2063 19.48 79.0196 19.2133 78.6463 19.04C78.2863 18.8533 77.7063 18.6533 76.9062 18.44C76.0796 18.24 75.3996 18.0333 74.8663 17.82C74.3463 17.6067 73.8929 17.28 73.5063 16.84C73.1329 16.4 72.9463 15.8067 72.9463 15.06C72.9463 14.4467 73.1196 13.8867 73.4663 13.38C73.8263 12.8733 74.3329 12.4733 74.9863 12.18C75.6529 11.8867 76.4329 11.74 77.3263 11.74C78.6463 11.74 79.6996 12.0733 80.4863 12.74C81.2729 13.3933 81.7063 14.28 81.7863 15.4H79.1063C79.0663 14.96 78.8796 14.6133 78.5463 14.36C78.2263 14.0933 77.7929 13.96 77.2463 13.96C76.7396 13.96 76.3463 14.0533 76.0663 14.24C75.7996 14.4267 75.6663 14.6867 75.6663 15.02C75.6663 15.3933 75.8529 15.68 76.2263 15.88C76.5996 16.0667 77.1796 16.26 77.9663 16.46C78.7663 16.66 79.4263 16.8667 79.9463 17.08C80.4663 17.2933 80.9129 17.6267 81.2863 18.08C81.6729 18.52 81.8729 19.1067 81.8863 19.84C81.8863 20.48 81.7063 21.0533 81.3463 21.56C80.9996 22.0667 80.4929 22.4667 79.8263 22.76C79.1729 23.04 78.4063 23.18 77.5263 23.18ZM86.9847 8.2V23H84.1847V8.2H86.9847ZM100.211 11.92V23H97.3911V21.6C97.0311 22.08 96.5578 22.46 95.9711 22.74C95.3978 23.0067 94.7711 23.14 94.0911 23.14C93.2244 23.14 92.4578 22.96 91.7911 22.6C91.1244 22.2267 90.5978 21.6867 90.2111 20.98C89.8378 20.26 89.6511 19.4067 89.6511 18.42V11.92H92.4511V18.02C92.4511 18.9 92.6711 19.58 93.1111 20.06C93.5511 20.5267 94.1511 20.76 94.9111 20.76C95.6844 20.76 96.2911 20.5267 96.7311 20.06C97.1711 19.58 97.3911 18.9 97.3911 18.02V11.92H100.211ZM112.474 9.04V11.3H108.754V23H105.954V11.3H102.234V9.04H112.474ZM117.317 13.64C117.677 13.0533 118.143 12.5933 118.717 12.26C119.303 11.9267 119.97 11.76 120.717 11.76V14.7H119.977C119.097 14.7 118.43 14.9067 117.977 15.32C117.537 15.7333 117.317 16.4533 117.317 17.48V23H114.517V11.92H117.317V13.64ZM124.023 10.6C123.529 10.6 123.116 10.4467 122.783 10.14C122.463 9.82 122.303 9.42667 122.303 8.96C122.303 8.49333 122.463 8.10667 122.783 7.8C123.116 7.48 123.529 7.32 124.023 7.32C124.516 7.32 124.923 7.48 125.243 7.8C125.576 8.10667 125.743 8.49333 125.743 8.96C125.743 9.42667 125.576 9.82 125.243 10.14C124.923 10.4467 124.516 10.6 124.023 10.6ZM125.403 11.92V23H122.603V11.92H125.403ZM130.969 13.52C131.329 13.0133 131.822 12.5933 132.449 12.26C133.089 11.9133 133.816 11.74 134.629 11.74C135.576 11.74 136.429 11.9733 137.189 12.44C137.962 12.9067 138.569 13.5733 139.009 14.44C139.462 15.2933 139.689 16.2867 139.689 17.42C139.689 18.5533 139.462 19.56 139.009 20.44C138.569 21.3067 137.962 21.98 137.189 22.46C136.429 22.94 135.576 23.18 134.629 23.18C133.816 23.18 133.096 23.0133 132.469 22.68C131.856 22.3467 131.356 21.9267 130.969 21.42V28.28H128.169V11.92H130.969V13.52ZM136.829 17.42C136.829 16.7533 136.689 16.18 136.409 15.7C136.142 15.2067 135.782 14.8333 135.329 14.58C134.889 14.3267 134.409 14.2 133.889 14.2C133.382 14.2 132.902 14.3333 132.449 14.6C132.009 14.8533 131.649 15.2267 131.369 15.72C131.102 16.2133 130.969 16.7933 130.969 17.46C130.969 18.1267 131.102 18.7067 131.369 19.2C131.649 19.6933 132.009 20.0733 132.449 20.34C132.902 20.5933 133.382 20.72 133.889 20.72C134.409 20.72 134.889 20.5867 135.329 20.32C135.782 20.0533 136.142 19.6733 136.409 19.18C136.689 18.6867 136.829 18.1 136.829 17.42ZM145.964 23.18C145.057 23.18 144.244 23.02 143.524 22.7C142.804 22.3667 142.23 21.92 141.804 21.36C141.39 20.8 141.164 20.18 141.124 19.5H143.944C143.997 19.9267 144.204 20.28 144.564 20.56C144.937 20.84 145.397 20.98 145.944 20.98C146.477 20.98 146.89 20.8733 147.184 20.66C147.49 20.4467 147.644 20.1733 147.644 19.84C147.644 19.48 147.457 19.2133 147.084 19.04C146.724 18.8533 146.144 18.6533 145.344 18.44C144.517 18.24 143.837 18.0333 143.304 17.82C142.784 17.6067 142.33 17.28 141.944 16.84C141.57 16.4 141.384 15.8067 141.384 15.06C141.384 14.4467 141.557 13.8867 141.904 13.38C142.264 12.8733 142.77 12.4733 143.424 12.18C144.09 11.8867 144.87 11.74 145.764 11.74C147.084 11.74 148.137 12.0733 148.924 12.74C149.71 13.3933 150.144 14.28 150.224 15.4H147.544C147.504 14.96 147.317 14.6133 146.984 14.36C146.664 14.0933 146.23 13.96 145.684 13.96C145.177 13.96 144.784 14.0533 144.504 14.24C144.237 14.4267 144.104 14.6867 144.104 15.02C144.104 15.3933 144.29 15.68 144.664 15.88C145.037 16.0667 145.617 16.26 146.404 16.46C147.204 16.66 147.864 16.8667 148.384 17.08C148.904 17.2933 149.35 17.6267 149.724 18.08C150.11 18.52 150.31 19.1067 150.324 19.84C150.324 20.48 150.144 21.0533 149.784 21.56C149.437 22.0667 148.93 22.4667 148.264 22.76C147.61 23.04 146.844 23.18 145.964 23.18Z" fill="#590BD8"/>
</g>
<defs>
<clipPath id="clip0_74_3658">
<rect width="183" height="32" fill="white"/>
</clipPath>
</defs>
</svg>
